<svg width="34" height="35" viewBox="0 0 34 35" fill="none" xmlns="http://www.w3.org/2000/svg">
<path d="M17 0.416664C7.81 0.416664 0.333328 8.08025 0.333328 17.5C0.333328 26.9197 7.81 34.5833 17 34.5833C19.4433 34.5833 21.935 33.9495 24.4033 32.6973L22.9283 29.6343C20.9217 30.6507 18.9267 31.1667 17 31.1667C9.64833 31.1667 3.66666 25.0355 3.66666 17.5C3.66666 9.96454 9.64833 3.83333 17 3.83333C24.3517 3.83333 30.3333 9.96454 30.3333 17.5V19.2083C30.3333 20.3905 29.8117 22.625 27.8333 22.625C25.5067 22.625 25.3433 19.5175 25.3333 19.2083V10.6667H22V10.7094C20.5654 9.58008 18.8088 8.96488 17 8.95833C12.405 8.95833 8.66666 12.7901 8.66666 17.5C8.66666 22.2099 12.405 26.0417 17 26.0417C19.4167 26.0417 21.58 24.9637 23.1033 23.2725C23.9767 24.7929 25.45 26.0417 27.8333 26.0417C31.6217 26.0417 33.6667 22.5208 33.6667 19.2083V17.5C33.6667 8.08025 26.19 0.416664 17 0.416664ZM17 22.625C14.2433 22.625 12 20.3256 12 17.5C12 14.6744 14.2433 12.375 17 12.375C19.7567 12.375 22 14.6744 22 17.5C22 20.3256 19.7567 22.625 17 22.625Z" fill="black" fill-opacity="0.4"/>
</svg>
