<svg width="83" height="83" viewBox="0 0 83 83" fill="none" xmlns="http://www.w3.org/2000/svg">
<path d="M16.0938 54.1562L3.34375 50.9688C3.34375 50.9688 3.34375 41.4062 6.53125 31.8438C9.71875 22.2812 32.0312 22.2812 32.0312 22.2812L16.0938 54.1562ZM28.8438 66.9062L32.0312 79.6562C32.0312 79.6562 41.5938 79.6562 51.1562 76.4688C60.7188 73.2812 60.7188 50.9688 60.7188 50.9688L28.8438 66.9062ZM16.0938 54.1562L28.8438 66.9062C28.8438 66.9062 60.7188 54.1562 70.2812 38.2188C79.8438 22.2812 79.8438 3.15625 79.8438 3.15625C79.8438 3.15625 60.7188 3.15625 44.7812 12.7188C28.8438 22.2812 16.0938 54.1562 16.0938 54.1562Z" stroke="url(#paint0_linear_2_34)" stroke-width="6" stroke-linecap="round" stroke-linejoin="round"/>
<defs>
<linearGradient id="paint0_linear_2_34" x1="41.5938" y1="3.15625" x2="103.474" y2="42.3148" gradientUnits="userSpaceOnUse">
<stop stop-color="#53E0FF"/>
<stop offset="1" stop-color="#1E94E9"/>
</linearGradient>
</defs>
</svg>
