<svg width="30" height="37" viewBox="0 0 30 37" fill="none" xmlns="http://www.w3.org/2000/svg">
<path d="M25.5 14.0833H4.5C2.84315 14.0833 1.5 15.613 1.5 17.5V31.1667C1.5 33.0536 2.84315 34.5833 4.5 34.5833H25.5C27.1569 34.5833 28.5 33.0536 28.5 31.1667V17.5C28.5 15.613 27.1569 14.0833 25.5 14.0833Z" stroke="#949494" stroke-width="3" stroke-linecap="round" stroke-linejoin="round"/>
<path d="M6 7.25C6 5.89077 6.47411 4.5872 7.31802 3.62608C8.16193 2.66495 9.30653 2.125 10.5 2.125H19.5C20.6935 2.125 21.8381 2.66495 22.682 3.62608C23.5259 4.5872 24 5.89077 24 7.25V14.0833H6V7.25Z" stroke="#949494" stroke-width="3" stroke-linecap="round" stroke-linejoin="round"/>
</svg>
